<svg
                width="80"
                height="80"
                viewBox="0 0 80 80"
                fill="none"
                xmlns="http://www.w3.org/2000/svg"
              >
                <path
                  d="M6.66406 29.9993C6.66406 25.2531 6.66406 22.8799 7.61139 21.0776C8.38872 19.5987 9.59675 18.3907 11.0756 17.6133C12.878 16.666 15.2511 16.666 19.9974 16.666H59.9974C64.7437 16.666 67.1168 16.666 68.9192 17.6133C70.398 18.3907 71.6061 19.5987 72.3834 21.0776C73.3307 22.8799 73.3307 25.2531 73.3307 29.9993C73.3307 31.1859 73.3307 31.7792 73.0939 32.2298C72.8996 32.5995 72.5976 32.9015 72.2278 33.0958C71.7773 33.3327 71.184 33.3327 69.9974 33.3327H9.99739C8.81082 33.3327 8.21753 33.3327 7.76696 33.0958C7.39723 32.9015 7.09523 32.5995 6.90089 32.2298C6.66406 31.7792 6.66406 31.1859 6.66406 29.9993Z"
                  fill="#FF8A5B"
                />
                <path
                  fill-rule="evenodd"
                  clip-rule="evenodd"
                  d="M6.66406 56.8341C6.66406 64.6122 6.66406 68.5013 9.08043 70.9177C11.4968 73.3341 15.3859 73.3341 23.1641 73.3341H56.8307C64.6089 73.3341 68.498 73.3341 70.9144 70.9177C73.3307 68.5013 73.3307 64.6122 73.3307 56.8341V44.1257C73.3307 42.1812 73.3307 41.2089 72.7266 40.6048C72.1225 40.0007 71.1503 40.0007 69.2057 40.0007H10.7891C8.84452 40.0007 7.87225 40.0007 7.26815 40.6048C6.66406 41.2089 6.66406 42.1812 6.66406 44.1257V56.8341ZM23.3281 49.9994C23.3281 48.8129 23.3281 48.2196 23.565 47.769C23.7593 47.3993 24.0613 47.0973 24.431 46.9029C24.8816 46.6661 25.4749 46.6661 26.6615 46.6661H33.3281C34.5147 46.6661 35.108 46.6661 35.5586 46.9029C35.9283 47.0973 36.2303 47.3993 36.4246 47.769C36.6615 48.2196 36.6615 48.8129 36.6615 49.9994C36.6615 51.186 36.6615 51.7793 36.4246 52.2299C36.2303 52.5996 35.9283 52.9016 35.5586 53.0959C35.108 53.3328 34.5147 53.3328 33.3281 53.3328H26.6615C25.4749 53.3328 24.8816 53.3328 24.431 53.0959C24.0613 52.9016 23.7593 52.5996 23.565 52.2299C23.3281 51.7793 23.3281 51.186 23.3281 49.9994ZM23.565 61.103C23.3281 61.5536 23.3281 62.1468 23.3281 63.3334C23.3281 64.52 23.3281 65.1133 23.565 65.5639C23.7593 65.9336 24.0613 66.2356 24.431 66.4299C24.8816 66.6667 25.4749 66.6667 26.6615 66.6667H33.3281C34.5147 66.6667 35.108 66.6667 35.5586 66.4299C35.9283 66.2356 36.2303 65.9336 36.4246 65.5639C36.6615 65.1133 36.6615 64.52 36.6615 63.3334C36.6615 62.1468 36.6615 61.5536 36.4246 61.103C36.2303 60.7333 35.9283 60.4312 35.5586 60.2369C35.108 60.0001 34.5147 60.0001 33.3281 60.0001H26.6615C25.4749 60.0001 24.8816 60.0001 24.431 60.2369C24.0613 60.4312 23.7593 60.7333 23.565 61.103ZM43.3281 49.9994C43.3281 48.8129 43.3281 48.2196 43.565 47.769C43.7593 47.3993 44.0613 47.0973 44.431 46.9029C44.8816 46.6661 45.4749 46.6661 46.6615 46.6661H53.3281C54.5147 46.6661 55.108 46.6661 55.5586 46.9029C55.9283 47.0973 56.2303 47.3993 56.4246 47.769C56.6615 48.2196 56.6615 48.8129 56.6615 49.9994C56.6615 51.186 56.6615 51.7793 56.4246 52.2299C56.2303 52.5996 55.9283 52.9016 55.5586 53.0959C55.108 53.3328 54.5147 53.3328 53.3281 53.3328H46.6615C45.4749 53.3328 44.8816 53.3328 44.431 53.0959C44.0613 52.9016 43.7593 52.5996 43.565 52.2299C43.3281 51.7793 43.3281 51.186 43.3281 49.9994ZM43.565 61.103C43.3281 61.5536 43.3281 62.1468 43.3281 63.3334C43.3281 64.52 43.3281 65.1133 43.565 65.5639C43.7593 65.9336 44.0613 66.2356 44.431 66.4299C44.8816 66.6667 45.4749 66.6667 46.6615 66.6667H53.3281C54.5147 66.6667 55.108 66.6667 55.5586 66.4299C55.9283 66.2356 56.2303 65.9336 56.4246 65.5639C56.6615 65.1133 56.6615 64.52 56.6615 63.3334C56.6615 62.1468 56.6615 61.5536 56.4246 61.103C56.2303 60.7333 55.9283 60.4312 55.5586 60.2369C55.108 60.0001 54.5147 60.0001 53.3281 60.0001H46.6615C45.4749 60.0001 44.8816 60.0001 44.431 60.2369C44.0613 60.4312 43.7593 60.7333 43.565 61.103Z"
                  fill="#FF8A5B"
                />
                <path
                  d="M23.3359 10L23.3359 20"
                  stroke="#FF8A5B"
                  stroke-width="8.25"
                  stroke-linecap="round"
                />
                <path
                  d="M56.6641 10L56.6641 20"
                  stroke="#FF8A5B"
                  stroke-width="8.25"
                  stroke-linecap="round"
                />
              </svg>