<svg
                width="93"
                height="80"
                viewBox="0 0 93 80"
                fill="none"
                xmlns="http://www.w3.org/2000/svg"
              >
                <path
                  d="M29.7396 13.0886C33.3539 13.0886 36.2839 10.1586 36.2839 6.54428C36.2839 2.92997 33.3539 0 29.7396 0C26.1253 0 23.1953 2.92997 23.1953 6.54428C23.1953 10.1586 26.1253 13.0886 29.7396 13.0886Z"
                  fill="#FF8A5B"
                />
                <path
                  d="M91.614 48.3249L84.1896 38.1253C84.0194 37.8914 83.8159 37.6838 83.5856 37.5088L72.6662 29.2169C71.8335 28.5845 70.7749 28.462 69.8603 28.7937C69.0573 28.8723 69.37 28.8124 61.3465 31.876C60.3969 32.2385 59.6456 32.8935 59.1537 33.6987L63.8131 32.6982L53.7423 37.772C44.4335 32.4718 44.3286 32.2019 43.0783 32.3239C42.4843 31.891 42.2766 31.9003 39.2894 31.1325L32.1384 29.2945L28.4317 18.6443L31.2529 22.8569L31.7426 21.5745C32.6135 19.2934 31.4705 16.7384 29.1894 15.8673C21.1771 12.808 21.4783 12.863 20.6715 12.7849C19.8973 12.5049 19.0117 12.5441 18.2335 12.9721L6.13175 19.6304C5.56851 19.9402 5.12121 20.4249 4.85738 21.011L0.262037 31.2197C-0.410113 32.7129 0.255406 34.4683 1.7486 35.1405C3.241 35.8124 4.99683 35.1477 5.66938 33.6539L9.85822 24.3485L13.5563 22.3135L8.15121 36.8461C8.15121 36.8461 7.77264 40.4904 5.85646 66.6136C5.7166 68.5159 7.1453 70.1715 9.04762 70.3114C9.06349 70.3126 9.07916 70.3122 9.09504 70.3132H3.35272C2.59437 70.3132 1.97969 70.9279 1.97969 71.6862V78.6265C1.97969 79.3849 2.59437 79.9996 3.35272 79.9996H31.8505C32.6088 79.9996 33.2235 79.3849 33.2235 78.6265V71.6862C33.2235 70.9279 32.6088 70.3132 31.8505 70.3132H26.709C28.5472 70.235 30.0147 68.7245 30.0147 66.867V50.6016C30.0147 49.9443 29.8272 49.3009 29.4744 48.7467L24.4064 40.7871L26.1435 36.2376C24.9986 35.2853 24.3226 33.9326 24.2292 33.0412L22.9669 20.9843L27.06 32.7448C27.3858 33.6802 28.158 34.394 29.1223 34.6419C41.7206 37.8799 40.9084 37.7387 41.6189 37.6697C41.8476 37.8357 40.9162 37.293 52.1894 43.7119C53.0605 44.2078 54.1217 44.2208 54.9906 43.7832L66.1115 38.1803L60.7395 42.6804L65.0252 53.9044L60.553 57.4603C59.9641 57.9287 59.5441 58.5765 59.357 59.3054L55.1559 75.6769C54.6819 77.5244 55.7953 79.4066 57.6428 79.8806C59.4902 80.3547 61.3725 79.2412 61.8465 77.3938L65.7594 62.1455L72.8798 56.4839L74.1339 56.0051L72.8308 63.4227C72.6799 64.2821 72.8597 65.1666 73.3343 65.8989L81.4464 78.4139C82.484 80.0151 84.623 80.4708 86.2229 79.4335C87.8234 78.3961 88.28 76.2574 87.2425 74.6569L79.869 63.281L81.6515 53.1348L77.8477 40.5979L79.6517 41.9679L86.8193 51.8148C87.7833 53.1393 89.6377 53.4306 90.9613 52.4671C92.2858 51.5032 92.5777 49.6487 91.614 48.3249ZM26.4128 70.313H9.46437C11.1856 70.2332 12.6159 68.8817 12.7455 67.12L14.7859 39.3791L15.4928 39.649L23.1069 51.6075V66.8666C23.1071 68.7243 24.5746 70.2348 26.4128 70.313Z"
                  fill="#FF8A5B"
                />
                <path
                  d="M60.7943 29.0978C64.4086 29.0978 67.3385 26.1679 67.3385 22.5536C67.3385 18.9393 64.4086 16.0093 60.7943 16.0093C57.18 16.0093 54.25 18.9393 54.25 22.5536C54.25 26.1679 57.18 29.0978 60.7943 29.0978Z"
                  fill="#FF8A5B"
                />
              </svg>